<svg xmlns="http://www.w3.org/2000/svg" version="1.1" xmlns:xlink="http://www.w3.org/1999/xlink" xmlns:svgjs="http://svgjs.dev/svgjs" width="128" height="128" viewBox="0 0 128 128"><g transform="matrix(0.8046875,0,0,0.8046875,12.760752631578946,19.893328389885134)"><svg viewBox="0 0 95 81" data-background-color="#ffffff" preserveAspectRatio="xMidYMid meet" height="109" width="128" xmlns="http://www.w3.org/2000/svg" xmlns:xlink="http://www.w3.org/1999/xlink"><g id="tight-bounds" transform="matrix(1,0,0,1,-0.24049999999999727,0.23198283189373115)"><svg viewBox="0 0 95.481 80.53603433621252" height="80.53603433621252" width="95.481"><g><svg viewBox="0 0 95.481 80.53603433621252" height="80.53603433621252" width="95.481"><g><svg viewBox="0 0 95.481 80.53603433621252" height="80.53603433621252" width="95.481"><g><svg viewBox="0 0 95.481 80.53603433621252" height="80.53603433621252" width="95.481"><g><svg viewBox="0 0 95.481 80.53603433621252" height="80.53603433621252" width="95.481"><g><svg viewBox="0 0 95.481 80.53603433621252" height="80.53603433621252" width="95.481"><g><svg xmlns="http://www.w3.org/2000/svg" viewBox="0.00540416654140803 0.018749999999998004 31.988124973911575 26.981250000000003" enable-background="new 0 0 32 32" x="0" y="0" height="80.53603433621252" width="95.481" class="icon-icon-0" data-fill-palette-color="accent" id="icon-0"><g fill="#6B46C1" data-fill-palette-color="accent"><path d="M16 15.856c-0.348 0-0.697-0.072-1.021-0.217l-14.056-6.277c-0.523-0.201-0.901-0.738-0.917-1.347-0.017-0.609 0.331-1.165 0.887-1.416l14.027-6.347c0.687-0.311 1.474-0.311 2.161 0l14.024 6.345c0.556 0.251 0.904 0.808 0.888 1.418-0.017 0.609-0.396 1.146-0.964 1.366l-14.008 6.257c-0.324 0.146-0.673 0.218-1.021 0.218z m-13.29-7.885l13.084 5.842c0.131 0.059 0.28 0.058 0.411 0l13.083-5.842-13.032-5.896c-0.163-0.074-0.35-0.073-0.511 0h-0.001l-13.034 5.896zM16 27c-6.27 0-10.075-3.736-10.113-3.773-0.58-0.58-0.887-1.257-0.887-1.96v-10.267c0-0.552 0.448-1 1-1s1 0.448 1 1v10.267c0 0.162 0.101 0.346 0.301 0.545 0.032 0.033 3.336 3.188 8.699 3.188 4.946 0 8.207-2.613 8.645-3.128 0.175-0.207 0.355-0.44 0.355-0.605v-10.267c0-0.552 0.447-1 1-1s1 0.448 1 1v10.267c0 0.812-0.421 1.417-0.832 1.9-0.688 0.81-4.429 3.833-10.168 3.833zM21 20c-0.553 0-1-0.447-1-1v-5.586l-4.707-4.707c-0.391-0.391-0.391-1.023 0-1.414s1.023-0.391 1.414 0l5 5c0.188 0.187 0.293 0.442 0.293 0.707v6c0 0.553-0.447 1-1 1z" fill="#6B46C1" data-fill-palette-color="accent"></path></g></svg></g></svg></g></svg></g></svg></g></svg></g></svg></g><defs></defs></svg><rect width="95.481" height="80.53603433621252" fill="none" stroke="none" visibility="hidden"></rect></g></svg></g></svg>