<svg xmlns="http://www.w3.org/2000/svg" version="1.1" xmlns:xlink="http://www.w3.org/1999/xlink" xmlns:svgjs="http://svgjs.dev/svgjs" width="2000" height="469" viewBox="0 0 2000 469"><g transform="matrix(1,0,0,1,-1.2121212121212466,0.2760086353712836)"><svg viewBox="0 0 396 93" data-background-color="#ffffff" preserveAspectRatio="xMidYMid meet" height="469" width="2000" xmlns="http://www.w3.org/2000/svg" xmlns:xlink="http://www.w3.org/1999/xlink"><g id="tight-bounds" transform="matrix(1,0,0,1,0.2400000000000091,-0.05473092343183339)"><svg viewBox="0 0 395.52 93.10946184686365" height="93.10946184686365" width="395.52"><g><svg viewBox="0 0 516.1197098240522 121.49986961538463" height="93.10946184686365" width="395.52"><g transform="matrix(1,0,0,1,120.59970982405216,37.545223269230775)"><svg viewBox="0 0 395.52000000000004 46.40942307692308" height="46.40942307692308" width="395.52000000000004"><g id="textblocktransform"><svg viewBox="0 0 395.52000000000004 46.40942307692308" height="46.40942307692308" width="395.52000000000004" id="textblock"><g><svg viewBox="0 0 395.52000000000004 46.40942307692308" height="46.40942307692308" width="395.52000000000004"><g transform="matrix(1,0,0,1,0,0)"><svg width="395.52000000000004" viewBox="1.85 -38.35 332.77 39.050000000000004" height="46.40942307692308" data-palette-color="#9674e2"><path d="M20.4-36.35L20.4-36.35Q32.45-36.35 32.45-26.5L32.45-26.5Q32.45-24.85 32.1-22.95L32.1-22.95 30.35-12.95Q29.15-6 25.15-2.65 21.15 0.7 13.9 0.7 6.65 0.7 3.8-2.65L3.8-2.65Q1.85-4.95 1.85-9L1.85-9Q1.85-10.8 2.25-12.95L2.25-12.95 4-22.95Q6.35-36.35 20.4-36.35ZM15.25-7.05L15.25-7.05Q17.75-7.05 19.25-8.35 20.75-9.65 21.35-13.15L21.35-13.15 23.05-22.75Q23.2-23.75 23.2-24.55L23.2-24.55Q23.2-28.6 19.1-28.6L19.1-28.6Q13.95-28.5 12.95-22.75L12.95-22.75 11.25-13.15Q11.05-11.9 11.05-10.55L11.05-10.55Q11.05-7.05 15.25-7.05ZM50.4-15.35L50.4-15.35Q50.4-17.5 48.32-17.5 46.25-17.5 44.9-15.95L44.9-15.95 42.1 0 33.6 0 37.85-24.05 45.75-24.05 45.2-21.1Q48.15-24.75 52.65-24.75 57.15-24.75 58.5-22.55L58.5-22.55Q59.35-21.15 59.35-19.35 59.35-17.55 59.1-16L59.1-16 57.75-8.3Q57.7-8 57.7-7.75L57.7-7.75Q57.7-6.4 59.2-6.4L59.2-6.4Q60.35-6.4 61.25-6.9L61.25-6.9 61-1.25Q58.65 0.7 55.65 0.7L55.65 0.7Q48.85 0.7 48.85-5L48.85-5Q48.85-6 49.05-7.15L49.05-7.15 50.25-13.8Q50.4-14.7 50.4-15.35ZM73.5-7.7L73.5-7.7Q73.5-6.4 74.82-6.4 76.15-6.4 77.05-6.9L77.05-6.9 76.8-1.25Q74.4 0.7 71.4 0.7L71.4 0.7Q66.85 0.7 65.5-1.4L65.5-1.4Q64.65-2.75 64.65-4.35 64.65-5.95 64.85-7.15L64.85-7.15 70.3-37.95 78.8-37.95 73.55-8.3Q73.5-8 73.5-7.7ZM90.69-6.4L90.69-6.4Q91.84-6.4 92.74-6.9L92.74-6.9 92.49-1.25Q90.14 0.7 87.14 0.7L87.14 0.7Q82.59 0.7 81.24-1.4L81.24-1.4Q80.34-2.8 80.34-4.38 80.34-5.95 80.54-7.15L80.54-7.15 83.54-24.05 92.04-24.05 89.24-8.3Q89.19-8 89.19-7.75L89.19-7.75Q89.19-6.4 90.69-6.4ZM84.54-32.2L84.54-32.2Q84.54-35.4 85.97-36.88 87.39-38.35 90.39-38.35L90.39-38.35Q94.59-38.35 94.59-34.65L94.59-34.65Q94.59-31.5 93.17-30.05 91.74-28.6 88.69-28.6L88.69-28.6Q84.54-28.6 84.54-32.2ZM111.89-15.35L111.89-15.35Q111.89-17.5 109.82-17.5 107.74-17.5 106.39-15.95L106.39-15.95 103.59 0 95.09 0 99.34-24.05 107.24-24.05 106.69-21.1Q109.64-24.75 114.14-24.75 118.64-24.75 119.99-22.55L119.99-22.55Q120.84-21.15 120.84-19.35 120.84-17.55 120.59-16L120.59-16 119.24-8.3Q119.19-8 119.19-7.75L119.19-7.75Q119.19-6.4 120.69-6.4L120.69-6.4Q121.84-6.4 122.74-6.9L122.74-6.9 122.49-1.25Q120.14 0.7 117.14 0.7L117.14 0.7Q110.34 0.7 110.34-5L110.34-5Q110.34-6 110.54-7.15L110.54-7.15 111.74-13.8Q111.89-14.7 111.89-15.35ZM135.79 0.7L135.79 0.7Q125.39 0.7 125.39-6.5L125.39-6.5Q125.39-7.5 125.59-8.65L125.59-8.65 126.64-14.85Q127.49-19.65 131.06-22.23 134.64-24.8 140.54-24.8L140.54-24.8Q150.59-24.8 150.59-17.2L150.59-17.2Q150.59-16.1 150.39-14.8L150.39-14.8 149.79-11.25 134.54-11.25 134.34-10.1Q134.24-9.5 134.24-9L134.24-9Q134.24-6.25 137.49-6.25L137.49-6.25Q138.69-6.25 139.54-7 140.39-7.75 140.54-8.75L140.54-8.75 148.84-8.65Q147.19 0.7 135.79 0.7ZM135.04-14.3L141.79-14.3Q141.99-15.15 141.99-15.88 141.99-16.6 141.34-17.35 140.69-18.1 139.26-18.1 137.84-18.1 136.66-17.15 135.49-16.2 135.04-14.3L135.04-14.3ZM177.78 0.7L177.78 0.7Q170.63 0.7 167.88-2.4L167.88-2.4Q165.98-4.6 165.98-8.55L165.98-8.55Q165.98-10.25 166.33-12.2L166.33-12.2 168.38-23.7Q170.63-36.35 184.63-36.35L184.63-36.35Q190.43-36.35 193.43-33.88 196.43-31.4 196.43-27.1L196.43-27.1Q196.43-25.1 195.86-23.13 195.28-21.15 194.73-20.2L194.73-20.2 194.18-19.2 185.33-19.2Q186.98-21.1 186.98-24.6L186.98-24.6Q186.98-26.45 186.03-27.53 185.08-28.6 183.23-28.6L183.23-28.6Q178.18-28.6 177.23-23L177.23-23 175.48-12.9Q175.23-11.6 175.23-10.35L175.23-10.35Q175.23-7.05 179.18-7.05L179.18-7.05Q183.93-7.05 184.88-12.4L184.88-12.4 193.88-12.4 193.63-10.95Q191.63 0.7 177.78 0.7ZM212.58-24.75L212.58-24.75Q217.98-24.75 220.73-22.4L220.73-22.4Q222.88-20.55 222.88-17.25L222.88-17.25Q222.88-16.15 222.63-14.85L222.63-14.85 221.58-9Q220.63-3.7 217.16-1.5 213.68 0.7 207.88 0.7 202.08 0.7 199.38-1.5L199.38-1.5Q197.38-3.15 197.38-6.45L197.38-6.45Q197.38-7.6 197.63-9L197.63-9 198.68-14.85Q200.43-24.75 212.58-24.75ZM213.28-10.1L213.93-13.85Q214.03-14.35 214.03-15.13 214.03-15.9 213.38-16.85 212.73-17.8 211.11-17.8 209.48-17.8 208.38-16.73 207.28-15.65 206.98-13.85L206.98-13.85 206.33-10.1Q206.23-9.6 206.23-8.83 206.23-8.05 206.88-7.15 207.53-6.25 209.16-6.25 210.78-6.25 211.88-7.38 212.98-8.5 213.28-10.1L213.28-10.1ZM249.93-7.7L249.93-7.7Q249.93-6.4 251.25-6.4 252.58-6.4 253.48-6.9L253.48-6.9 253.23-1.25Q250.83 0.7 247.83 0.7L247.83 0.7Q242.18 0.7 241.68-3.65L241.68-3.65Q238.68 0.7 233.6 0.7 228.53 0.7 227.03-1.6L227.03-1.6Q226.03-3.05 226.03-4.9 226.03-6.75 226.33-8.3L226.33-8.3 229.13-24.05 237.63-24.05 235.28-10.75Q235.13-9.85 235.13-8.95L235.13-8.95Q235.13-6.55 237.83-6.55L237.83-6.55Q240.08-6.55 241.43-8.1L241.43-8.1 244.28-24.05 252.78-24.05 249.98-8.3Q249.93-8 249.93-7.7ZM280.83-18.95L280.83-18.95Q280.83-17.25 280.25-15.65 279.68-14.05 279.13-13.3L279.13-13.3 278.58-12.6 271.03-12.6Q272.28-13.75 272.28-15.45L272.28-15.45Q272.28-16.35 271.7-16.93 271.13-17.5 270.13-17.5L270.13-17.5Q268.43-17.5 267.18-15.8L267.18-15.8 264.38 0 255.88 0 260.13-24.05 268.03-24.05 267.43-20.7Q270.28-24.75 274.33-24.75L274.33-24.75Q277.58-24.75 279.2-23.2 280.83-21.65 280.83-18.95ZM307.27-18.85L307.27-18.85Q307.27-17.2 306.27-15.8L306.27-15.8 298.07-15.8Q298.47-16.1 298.47-16.8 298.47-17.5 297.67-17.93 296.87-18.35 295.62-18.35L295.62-18.35Q291.87-18.35 291.87-16.05L291.87-16.05Q291.87-15.15 293.27-14.75 294.67-14.35 296.67-14.1 298.67-13.85 300.67-13.38 302.67-12.9 304.07-11.5 305.47-10.1 305.47-7.75L305.47-7.75Q305.47-3.6 302.15-1.45 298.82 0.7 292.47 0.7 286.12 0.7 283.57-1.35L283.57-1.35Q281.57-2.95 281.57-5.75L281.57-5.75Q281.57-6.55 281.72-7.4L281.72-7.4 290.07-7.5Q289.97-6.8 290.9-6.28 291.82-5.75 293.62-5.75 295.42-5.75 296.22-6.13 297.02-6.5 297.02-7.55L297.02-7.55Q297.02-8.25 295.62-8.53 294.22-8.8 292.2-9 290.17-9.2 288.15-9.65 286.12-10.1 284.72-11.55 283.32-13 283.32-15.35L283.32-15.35Q283.32-19.9 286.85-22.35 290.37-24.8 297.02-24.8L297.02-24.8Q307.27-24.8 307.27-18.85ZM319.82 0.7L319.82 0.7Q309.42 0.7 309.42-6.5L309.42-6.5Q309.42-7.5 309.62-8.65L309.62-8.65 310.67-14.85Q311.52-19.65 315.1-22.23 318.67-24.8 324.57-24.8L324.57-24.8Q334.62-24.8 334.62-17.2L334.62-17.2Q334.62-16.1 334.42-14.8L334.42-14.8 333.82-11.25 318.57-11.25 318.37-10.1Q318.27-9.5 318.27-9L318.27-9Q318.27-6.25 321.52-6.25L321.52-6.25Q322.72-6.25 323.57-7 324.42-7.75 324.57-8.75L324.57-8.75 332.87-8.65Q331.22 0.7 319.82 0.7ZM319.07-14.3L325.82-14.3Q326.02-15.15 326.02-15.88 326.02-16.6 325.37-17.35 324.72-18.1 323.3-18.1 321.87-18.1 320.69-17.15 319.52-16.2 319.07-14.3L319.07-14.3Z" opacity="1" transform="matrix(1,0,0,1,0,0)" fill="#9674e2" class="undefined-text-0" data-fill-palette-color="primary" id="text-0"></path></svg></g></svg></g></svg></g></svg></g><g><svg viewBox="0 0 109.64355886174447 121.49986961538463" height="121.49986961538463" width="109.64355886174447"><g><svg xmlns="http://www.w3.org/2000/svg" xmlns:xlink="http://www.w3.org/1999/xlink" version="1.1" x="0" y="0" viewBox="3.308102034998465 0.2060000000000013 57.38289796500153 63.587999999999994" enable-background="new 0 0 64 64" xml:space="preserve" height="121.49986961538463" width="109.64355886174447" class="icon-icon-0" data-fill-palette-color="accent" id="icon-0"><g fill="#9674e2" data-fill-palette-color="accent"><path d="M32.213 30.931c1.313 1.742 12.943-2.2 12.943-14.364 0-3.976-3.224-7.199-7.199-7.199-2.351 0-4.431 1.13-5.744 2.872-1.314-1.742-3.394-2.872-5.743-2.872-3.976 0-7.199 3.223-7.199 7.199C19.271 30.543 30.899 32.672 32.213 30.931z" fill="#9674e2" data-fill-palette-color="accent"></path><path d="M31.572 10.592l1.281 0.303c0.06-0.252 1.4-6.208-3.964-10.689l-0.843 1.01C32.769 5.162 31.624 10.372 31.572 10.592z" fill="#9674e2" data-fill-palette-color="accent"></path><path d="M45.356 2.743c-10.607-6.119-12.401 1.02-12.401 1.02C38.258 9.636 45.356 2.743 45.356 2.743z" fill="#9674e2" data-fill-palette-color="accent"></path><path d="M58.116 37.004c0.124-2.325-0.004-5.209-0.103-6.849l2.678-2.678-15.028-5.511c-0.987 3.115-2.705 5.324-4.233 6.773-2.81 2.666-6.062 3.86-8.038 3.86-0.461 0-0.841-0.064-1.153-0.166-0.478 0.194-1.061 0.293-1.734 0.293-2.962 0-8.186-2.084-10.876-7.833L4.997 39.526c0 0-1.77 1.096-1.686 5.058 0.085 3.958 4.298 6.319 4.298 6.319l28.734 12.891 24.18-24.184C61.075 37.48 58.451 37.049 58.116 37.004zM9.294 48.206c0 0-3.118-0.758-2.949-4.13 0.118-2.361 1.937-2.779 1.937-2.779l26.416 11.154 0.224 7.479L9.294 48.206zM56.981 38.099L35.945 59.137l-0.203-6.709L57.018 31.15C57.118 33.168 57.202 36.12 56.981 38.099z" fill="#9674e2" data-fill-palette-color="accent"></path></g></svg></g></svg></g></svg></g><defs></defs></svg><rect width="395.52" height="93.10946184686365" fill="none" stroke="none" visibility="hidden"></rect></g></svg></g></svg>