<svg xmlns="http://www.w3.org/2000/svg" version="1.1" xmlns:xlink="http://www.w3.org/1999/xlink" xmlns:svgjs="http://svgjs.dev/svgjs" width="2000" height="469" viewBox="0 0 2000 469"><g transform="matrix(1,0,0,1,-1.2121212121212466,0.2489809778555241)"><svg viewBox="0 0 396 93" data-background-color="#ffffff" preserveAspectRatio="xMidYMid meet" height="469" width="2000" xmlns="http://www.w3.org/2000/svg" xmlns:xlink="http://www.w3.org/1999/xlink"><g id="tight-bounds" transform="matrix(1,0,0,1,0.2400000000000091,-0.04937149454278256)"><svg viewBox="0 0 395.52 93.09874298908555" height="93.09874298908555" width="395.52"><g><svg viewBox="0 0 516.1015935990523 121.48161817034702" height="93.09874298908555" width="395.52"><g transform="matrix(1,0,0,1,120.58159359905231,37.539583307796306)"><svg viewBox="0 0 395.52000000000004 46.4024515547544" height="46.4024515547544" width="395.52000000000004"><g><svg viewBox="0 0 395.52000000000004 46.4024515547544" height="46.4024515547544" width="395.52000000000004"><g><svg viewBox="0 0 395.52000000000004 46.4024515547544" height="46.4024515547544" width="395.52000000000004"><g transform="matrix(1,0,0,1,0,0)"><svg width="395.52000000000004" viewBox="1.8 -38.35 332.82 39.050000000000004" height="46.4024515547544" data-palette-color="#805AD5"><path d="M13.6 0.7L13.6 0.7Q6.45 0.7 3.7-2.4L3.7-2.4Q1.8-4.6 1.8-8.55L1.8-8.55Q1.8-10.25 2.15-12.2L2.15-12.2 4.2-23.7Q6.45-36.35 20.45-36.35L20.45-36.35Q26.25-36.35 29.25-33.88 32.25-31.4 32.25-27.1L32.25-27.1Q32.25-25.1 31.68-23.13 31.1-21.15 30.55-20.2L30.55-20.2 30-19.2 21.15-19.2Q22.8-21.1 22.8-24.6L22.8-24.6Q22.8-26.45 21.85-27.53 20.9-28.6 19.05-28.6L19.05-28.6Q14-28.6 13.05-23L13.05-23 11.3-12.9Q11.05-11.6 11.05-10.35L11.05-10.35Q11.05-7.05 15-7.05L15-7.05Q19.75-7.05 20.7-12.4L20.7-12.4 29.7-12.4 29.45-10.95Q27.45 0.7 13.6 0.7ZM48.4-24.75L48.4-24.75Q53.8-24.75 56.55-22.4L56.55-22.4Q58.7-20.55 58.7-17.25L58.7-17.25Q58.7-16.15 58.45-14.85L58.45-14.85 57.4-9Q56.45-3.7 52.97-1.5 49.5 0.7 43.7 0.7 37.9 0.7 35.2-1.5L35.2-1.5Q33.2-3.15 33.2-6.45L33.2-6.45Q33.2-7.6 33.45-9L33.45-9 34.5-14.85Q36.25-24.75 48.4-24.75ZM49.1-10.1L49.75-13.85Q49.85-14.35 49.85-15.13 49.85-15.9 49.2-16.85 48.55-17.8 46.92-17.8 45.3-17.8 44.2-16.73 43.1-15.65 42.8-13.85L42.8-13.85 42.15-10.1Q42.05-9.6 42.05-8.83 42.05-8.05 42.7-7.15 43.35-6.25 44.97-6.25 46.6-6.25 47.7-7.38 48.8-8.5 49.1-10.1L49.1-10.1ZM85.75-7.7L85.75-7.7Q85.75-6.4 87.07-6.4 88.4-6.4 89.3-6.9L89.3-6.9 89.05-1.25Q86.65 0.7 83.65 0.7L83.65 0.7Q78 0.7 77.5-3.65L77.5-3.65Q74.5 0.7 69.42 0.7 64.35 0.7 62.85-1.6L62.85-1.6Q61.85-3.05 61.85-4.9 61.85-6.75 62.15-8.3L62.15-8.3 64.95-24.05 73.45-24.05 71.1-10.75Q70.95-9.85 70.95-8.95L70.95-8.95Q70.95-6.55 73.65-6.55L73.65-6.55Q75.9-6.55 77.25-8.1L77.25-8.1 80.1-24.05 88.6-24.05 85.8-8.3Q85.75-8 85.75-7.7ZM116.64-18.95L116.64-18.95Q116.64-17.25 116.07-15.65 115.49-14.05 114.94-13.3L114.94-13.3 114.39-12.6 106.84-12.6Q108.09-13.75 108.09-15.45L108.09-15.45Q108.09-16.35 107.52-16.93 106.94-17.5 105.94-17.5L105.94-17.5Q104.24-17.5 102.99-15.8L102.99-15.8 100.19 0 91.69 0 95.94-24.05 103.84-24.05 103.24-20.7Q106.09-24.75 110.14-24.75L110.14-24.75Q113.39-24.75 115.02-23.2 116.64-21.65 116.64-18.95ZM143.09-18.85L143.09-18.85Q143.09-17.2 142.09-15.8L142.09-15.8 133.89-15.8Q134.29-16.1 134.29-16.8 134.29-17.5 133.49-17.93 132.69-18.35 131.44-18.35L131.44-18.35Q127.69-18.35 127.69-16.05L127.69-16.05Q127.69-15.15 129.09-14.75 130.49-14.35 132.49-14.1 134.49-13.85 136.49-13.38 138.49-12.9 139.89-11.5 141.29-10.1 141.29-7.75L141.29-7.75Q141.29-3.6 137.97-1.45 134.64 0.7 128.29 0.7 121.94 0.7 119.39-1.35L119.39-1.35Q117.39-2.95 117.39-5.75L117.39-5.75Q117.39-6.55 117.54-7.4L117.54-7.4 125.89-7.5Q125.79-6.8 126.72-6.28 127.64-5.75 129.44-5.75 131.24-5.75 132.04-6.13 132.84-6.5 132.84-7.55L132.84-7.55Q132.84-8.25 131.44-8.53 130.04-8.8 128.02-9 125.99-9.2 123.97-9.65 121.94-10.1 120.54-11.55 119.14-13 119.14-15.35L119.14-15.35Q119.14-19.9 122.67-22.35 126.19-24.8 132.84-24.8L132.84-24.8Q143.09-24.8 143.09-18.85ZM155.64 0.7L155.64 0.7Q145.24 0.7 145.24-6.5L145.24-6.5Q145.24-7.5 145.44-8.65L145.44-8.65 146.49-14.85Q147.34-19.65 150.91-22.23 154.49-24.8 160.39-24.8L160.39-24.8Q170.44-24.8 170.44-17.2L170.44-17.2Q170.44-16.1 170.24-14.8L170.24-14.8 169.64-11.25 154.39-11.25 154.19-10.1Q154.09-9.5 154.09-9L154.09-9Q154.09-6.25 157.34-6.25L157.34-6.25Q158.54-6.25 159.39-7 160.24-7.75 160.39-8.75L160.39-8.75 168.69-8.65Q167.04 0.7 155.64 0.7ZM154.89-14.3L161.64-14.3Q161.84-15.15 161.84-15.88 161.84-16.6 161.19-17.35 160.54-18.1 159.11-18.1 157.69-18.1 156.51-17.15 155.34-16.2 154.89-14.3L154.89-14.3ZM204.43-36.35L204.43-36.35Q216.48-36.35 216.48-26.5L216.48-26.5Q216.48-24.85 216.13-22.95L216.13-22.95 214.38-12.95Q213.18-6 209.18-2.65 205.18 0.7 197.93 0.7 190.68 0.7 187.83-2.65L187.83-2.65Q185.88-4.95 185.88-9L185.88-9Q185.88-10.8 186.28-12.95L186.28-12.95 188.03-22.95Q190.38-36.35 204.43-36.35ZM199.28-7.05L199.28-7.05Q201.78-7.05 203.28-8.35 204.78-9.65 205.38-13.15L205.38-13.15 207.08-22.75Q207.23-23.75 207.23-24.55L207.23-24.55Q207.23-28.6 203.13-28.6L203.13-28.6Q197.98-28.5 196.98-22.75L196.98-22.75 195.28-13.15Q195.08-11.9 195.08-10.55L195.08-10.55Q195.08-7.05 199.28-7.05ZM234.43-15.35L234.43-15.35Q234.43-17.5 232.36-17.5 230.28-17.5 228.93-15.95L228.93-15.95 226.13 0 217.63 0 221.88-24.05 229.78-24.05 229.23-21.1Q232.18-24.75 236.68-24.75 241.18-24.75 242.53-22.55L242.53-22.55Q243.38-21.15 243.38-19.35 243.38-17.55 243.13-16L243.13-16 241.78-8.3Q241.73-8 241.73-7.75L241.73-7.75Q241.73-6.4 243.23-6.4L243.23-6.4Q244.38-6.4 245.28-6.9L245.28-6.9 245.03-1.25Q242.68 0.7 239.68 0.7L239.68 0.7Q232.88 0.7 232.88-5L232.88-5Q232.88-6 233.08-7.15L233.08-7.15 234.28-13.8Q234.43-14.7 234.43-15.35ZM257.53-7.7L257.53-7.7Q257.53-6.4 258.85-6.4 260.18-6.4 261.08-6.9L261.08-6.9 260.83-1.25Q258.43 0.7 255.43 0.7L255.43 0.7Q250.88 0.7 249.53-1.4L249.53-1.4Q248.68-2.75 248.68-4.35 248.68-5.95 248.88-7.15L248.88-7.15 254.33-37.95 262.83-37.95 257.58-8.3Q257.53-8 257.53-7.7ZM274.73-6.4L274.73-6.4Q275.88-6.4 276.78-6.9L276.78-6.9 276.53-1.25Q274.18 0.7 271.18 0.7L271.18 0.7Q266.63 0.7 265.28-1.4L265.28-1.4Q264.38-2.8 264.38-4.38 264.38-5.95 264.58-7.15L264.58-7.15 267.58-24.05 276.08-24.05 273.28-8.3Q273.23-8 273.23-7.75L273.23-7.75Q273.23-6.4 274.73-6.4ZM268.58-32.2L268.58-32.2Q268.58-35.4 270-36.88 271.43-38.35 274.43-38.35L274.43-38.35Q278.63-38.35 278.63-34.65L278.63-34.65Q278.63-31.5 277.2-30.05 275.78-28.6 272.73-28.6L272.73-28.6Q268.58-28.6 268.58-32.2ZM295.92-15.35L295.92-15.35Q295.92-17.5 293.85-17.5 291.77-17.5 290.42-15.95L290.42-15.95 287.62 0 279.12 0 283.37-24.05 291.27-24.05 290.72-21.1Q293.67-24.75 298.17-24.75 302.67-24.75 304.02-22.55L304.02-22.55Q304.87-21.15 304.87-19.35 304.87-17.55 304.62-16L304.62-16 303.27-8.3Q303.22-8 303.22-7.75L303.22-7.75Q303.22-6.4 304.72-6.4L304.72-6.4Q305.87-6.4 306.77-6.9L306.77-6.9 306.52-1.25Q304.17 0.7 301.17 0.7L301.17 0.7Q294.37 0.7 294.37-5L294.37-5Q294.37-6 294.57-7.15L294.57-7.15 295.77-13.8Q295.92-14.7 295.92-15.35ZM319.82 0.7L319.82 0.7Q309.42 0.7 309.42-6.5L309.42-6.5Q309.42-7.5 309.62-8.65L309.62-8.65 310.67-14.85Q311.52-19.65 315.1-22.23 318.67-24.8 324.57-24.8L324.57-24.8Q334.62-24.8 334.62-17.2L334.62-17.2Q334.62-16.1 334.42-14.8L334.42-14.8 333.82-11.25 318.57-11.25 318.37-10.1Q318.27-9.5 318.27-9L318.27-9Q318.27-6.25 321.52-6.25L321.52-6.25Q322.72-6.25 323.57-7 324.42-7.75 324.57-8.75L324.57-8.75 332.87-8.65Q331.22 0.7 319.82 0.7ZM319.07-14.3L325.82-14.3Q326.02-15.15 326.02-15.88 326.02-16.6 325.37-17.35 324.72-18.1 323.3-18.1 321.87-18.1 320.69-17.15 319.52-16.2 319.07-14.3L319.07-14.3Z" opacity="1" transform="matrix(1,0,0,1,0,0)" fill="#9F7AEA" class="undefined-text-0" data-fill-palette-color="primary" id="text-0"></path></svg></g></svg></g></svg></g></svg></g><g><svg viewBox="0 0 109.6270884458121 121.48161817034702" height="121.48161817034702" width="109.6270884458121"><g><svg xmlns="http://www.w3.org/2000/svg" xmlns:xlink="http://www.w3.org/1999/xlink" version="1.1" x="0" y="0" viewBox="3.308102034998465 0.2060000000000013 57.38289796500153 63.587999999999994" enable-background="new 0 0 64 64" xml:space="preserve" height="121.48161817034702" width="109.6270884458121" class="icon-icon-0" data-fill-palette-color="accent" id="icon-0"><g fill="#9F7AEA" data-fill-palette-color="accent"><path d="M32.213 30.931c1.313 1.742 12.943-2.2 12.943-14.364 0-3.976-3.224-7.199-7.199-7.199-2.351 0-4.431 1.13-5.744 2.872-1.314-1.742-3.394-2.872-5.743-2.872-3.976 0-7.199 3.223-7.199 7.199C19.271 30.543 30.899 32.672 32.213 30.931z" fill="#9F7AEA" data-fill-palette-color="accent"></path><path d="M31.572 10.592l1.281 0.303c0.06-0.252 1.4-6.208-3.964-10.689l-0.843 1.01C32.769 5.162 31.624 10.372 31.572 10.592z" fill="#9F7AEA" data-fill-palette-color="accent"></path><path d="M45.356 2.743c-10.607-6.119-12.401 1.02-12.401 1.02C38.258 9.636 45.356 2.743 45.356 2.743z" fill="#9F7AEA" data-fill-palette-color="accent"></path><path d="M58.116 37.004c0.124-2.325-0.004-5.209-0.103-6.849l2.678-2.678-15.028-5.511c-0.987 3.115-2.705 5.324-4.233 6.773-2.81 2.666-6.062 3.86-8.038 3.86-0.461 0-0.841-0.064-1.153-0.166-0.478 0.194-1.061 0.293-1.734 0.293-2.962 0-8.186-2.084-10.876-7.833L4.997 39.526c0 0-1.77 1.096-1.686 5.058 0.085 3.958 4.298 6.319 4.298 6.319l28.734 12.891 24.18-24.184C61.075 37.48 58.451 37.049 58.116 37.004zM9.294 48.206c0 0-3.118-0.758-2.949-4.13 0.118-2.361 1.937-2.779 1.937-2.779l26.416 11.154 0.224 7.479L9.294 48.206zM56.981 38.099L35.945 59.137l-0.203-6.709L57.018 31.15C57.118 33.168 57.202 36.12 56.981 38.099z" fill="#9F7AEA" data-fill-palette-color="accent"></path></g></svg></g></svg></g></svg></g><defs></defs></svg><rect width="395.52" height="93.09874298908555" fill="none" stroke="none" visibility="hidden"></rect></g></svg></g></svg>